<svg width="161" height="160" viewBox="0 0 161 160" fill="none" xmlns="http://www.w3.org/2000/svg">
<path d="M66.4595 13.9108C67.2097 14.166 67.9425 14.4695 68.6532 14.8195L77.2052 19.0298C79.5258 20.1725 82.2459 20.1725 84.5665 19.0298L93.1185 14.8195C102.202 10.3471 113.192 14.0855 117.664 23.1693L118.154 24.2515L118.573 25.3631L121.643 34.3871C122.476 36.8363 124.399 38.7596 126.848 39.5927L135.872 42.6625C145.458 45.9233 150.585 56.3375 147.325 65.9233C147.069 66.6734 146.766 67.4063 146.416 68.1169L142.205 76.6689C141.063 78.9896 141.063 81.7096 142.205 84.0303L146.416 92.5823C150.889 101.666 147.15 112.656 138.066 117.128C137.355 117.478 136.623 117.782 135.872 118.036L126.848 121.106C124.399 121.94 122.476 123.863 121.643 126.312L118.573 135.336C115.312 144.922 104.898 150.049 95.3119 146.788C94.5619 146.533 93.8292 146.23 93.1185 145.88L84.5665 141.669C82.2459 140.526 79.5258 140.526 77.2052 141.669L68.6532 145.88C59.5694 150.352 48.5798 146.614 44.1074 137.53C43.7574 136.819 43.4539 136.086 43.1987 135.336L40.129 126.312C39.2959 123.863 37.3725 121.94 34.9234 121.106L25.8994 118.036C16.3136 114.776 11.1863 104.362 14.4471 94.7756C14.7023 94.0256 15.0058 93.2929 15.3557 92.5823L19.5661 84.0303C20.7087 81.7096 20.7087 78.9896 19.5661 76.6689L15.3557 68.1169C10.8833 59.0331 14.6217 48.0435 23.7056 43.5711C24.4165 43.2211 25.1493 42.9176 25.8994 42.6625L34.9234 39.5927C37.3725 38.7596 39.2959 36.8363 40.129 34.3871L43.1987 25.3631C46.4595 15.7773 56.8738 10.65 66.4595 13.9108ZM104.017 60.1473L67.8885 96.2756L54.7269 80.4823C52.9591 78.3603 49.8063 78.0736 47.6849 79.8416C45.5635 81.6096 45.2769 84.7623 47.0447 86.8836L63.7113 106.884C65.5936 109.142 69.0092 109.298 71.0879 107.218L111.088 67.2183C113.041 65.2657 113.041 62.0999 111.088 60.1473C109.135 58.1947 105.97 58.1947 104.017 60.1473Z" fill="#1E7FFF"/>
</svg>
