<svg width="25" height="18" viewBox="0 0 25 18" fill="none" xmlns="http://www.w3.org/2000/svg">
<path d="M22.4894 0.0700684H1.85345C1.39737 0.0700684 0.959967 0.251247 0.637467 0.573747C0.314968 0.896246 0.133789 1.33365 0.133789 1.78973V15.5471C0.133789 16.0031 0.314968 16.4405 0.637467 16.763C0.959967 17.0855 1.39737 17.2667 1.85345 17.2667H22.4894C22.9455 17.2667 23.3829 17.0855 23.7054 16.763C24.0279 16.4405 24.2091 16.0031 24.2091 15.5471V1.78973C24.2091 1.33365 24.0279 0.896246 23.7054 0.573747C23.3829 0.251247 22.9455 0.0700684 22.4894 0.0700684ZM20.5978 1.78973L12.1714 7.6194L3.74509 1.78973H20.5978ZM1.85345 15.5471V2.57218L11.6813 9.37346C11.8253 9.47331 11.9963 9.52682 12.1714 9.52682C12.3466 9.52682 12.5176 9.47331 12.6616 9.37346L22.4894 2.57218V15.5471H1.85345Z" fill="#B4B4B4"/>
</svg>
