<svg width="21" height="21" viewBox="0 0 21 21" fill="none" xmlns="http://www.w3.org/2000/svg">
<path d="M10.702 14.3679C11.6218 14.3679 12.5038 14.0025 13.1542 13.3522C13.8045 12.7018 14.1699 11.8198 14.1699 10.9C14.1699 9.98028 13.8045 9.09821 13.1542 8.44785C12.5038 7.79749 11.6218 7.43213 10.702 7.43213C9.78228 7.43213 8.90021 7.79749 8.24985 8.44785C7.5995 9.09821 7.23413 9.98028 7.23413 10.9C7.23413 11.8198 7.5995 12.7018 8.24985 13.3522C8.90021 14.0025 9.78228 14.3679 10.702 14.3679Z" stroke="white" stroke-width="1.30046" stroke-linecap="round" stroke-linejoin="round"/>
<path d="M2.89917 14.3668V7.43105C2.89917 6.28138 3.35588 5.17879 4.16882 4.36584C4.98177 3.5529 6.08436 3.09619 7.23403 3.09619H14.1698C15.3195 3.09619 16.4221 3.5529 17.235 4.36584C18.048 5.17879 18.5047 6.28138 18.5047 7.43105V14.3668C18.5047 15.5165 18.048 16.6191 17.235 17.432C16.4221 18.245 15.3195 18.7017 14.1698 18.7017H7.23403C6.08436 18.7017 4.98177 18.245 4.16882 17.432C3.35588 16.6191 2.89917 15.5165 2.89917 14.3668Z" stroke="white" stroke-width="1.30046"/>
<path d="M15.4705 6.13952L15.4797 6.12939" stroke="white" stroke-width="1.30046" stroke-linecap="round" stroke-linejoin="round"/>
</svg>
