<svg width="17" height="18" viewBox="0 0 17 18" fill="none" xmlns="http://www.w3.org/2000/svg">
<g clip-path="url(#clip0_461_186)">
<path d="M15.4062 0.49469H1.59375C1.28035 0.491501 0.978492 0.612766 0.7544 0.831878C0.530308 1.05099 0.402291 1.35005 0.398438 1.66344V15.5317C0.402987 15.8446 0.531311 16.143 0.755327 16.3616C0.979343 16.5801 1.28081 16.701 1.59375 16.6978H15.4062C15.7197 16.7003 16.0213 16.5786 16.2453 16.3594C16.4693 16.1401 16.5974 15.8411 16.6016 15.5277V1.65946C16.596 1.34699 16.4673 1.04935 16.2435 0.831245C16.0196 0.613138 15.7188 0.492191 15.4062 0.49469Z" stroke="white" stroke-width="0.980298" stroke-linejoin="round"/>
<path d="M2.79696 6.56848H5.2022V14.3075H2.79696V6.56848ZM4.00024 2.71692C4.27611 2.71692 4.54578 2.79874 4.77514 2.95203C5.0045 3.10532 5.18324 3.3232 5.28875 3.57809C5.39426 3.83299 5.4218 4.11345 5.36788 4.384C5.31397 4.65455 5.18102 4.90303 4.98586 5.098C4.79069 5.29298 4.54209 5.42569 4.27149 5.47935C4.00089 5.53301 3.72045 5.5052 3.46566 5.39945C3.21087 5.29369 2.99316 5.11475 2.84009 4.88524C2.68702 4.65574 2.60545 4.38599 2.60571 4.11012C2.60607 3.7405 2.75314 3.38614 3.01463 3.1249C3.27612 2.86366 3.63062 2.71692 4.00024 2.71692ZM6.71095 6.56848H9.01657V7.63098H9.04845C9.36985 7.0227 10.1534 6.38122 11.3235 6.38122C13.7593 6.3759 14.2109 7.97895 14.2109 10.0575V14.3075H11.8056V10.5422C11.8056 9.64575 11.7897 8.49161 10.5559 8.49161C9.32204 8.49161 9.1122 9.46911 9.1122 10.4838V14.3075H6.71095V6.56848Z" fill="white"/>
</g>
<defs>
<clipPath id="clip0_461_186">
<rect width="17" height="17" fill="white" transform="translate(0 0.0964355)"/>
</clipPath>
</defs>
</svg>
