<svg width="26" height="26" viewBox="0 0 26 26" fill="none" xmlns="http://www.w3.org/2000/svg">
<path d="M7.48155 20.7738L8.38655 21.3025C9.91266 22.1928 11.6485 22.6601 13.4153 22.6562C15.3931 22.6562 17.3265 22.0698 18.971 20.9709C20.6155 19.8721 21.8972 18.3103 22.6541 16.4831C23.411 14.6558 23.609 12.6452 23.2232 10.7053C22.8373 8.76554 21.8849 6.98371 20.4864 5.58518C19.0878 4.18666 17.306 3.23425 15.3662 2.8484C13.4264 2.46255 11.4157 2.66058 9.58847 3.41745C7.76121 4.17433 6.19942 5.45606 5.10061 7.10055C4.00179 8.74504 3.4153 10.6784 3.4153 12.6562C3.41165 14.4236 3.87939 16.1599 4.7703 17.6863L5.2978 18.5912L4.48155 21.5925L7.48155 20.7738ZM0.920303 25.1562L2.6103 18.9462C1.4965 17.0374 0.911431 14.8663 0.915302 12.6562C0.915302 5.7525 6.51155 0.15625 13.4153 0.15625C20.3191 0.15625 25.9153 5.7525 25.9153 12.6562C25.9153 19.56 20.3191 25.1562 13.4153 25.1562C11.2062 25.1601 9.03603 24.5754 7.1278 23.4625L0.920303 25.1562ZM8.90405 6.79125C9.07239 6.77958 9.2403 6.77792 9.4078 6.78625C9.4753 6.79125 9.5428 6.79792 9.6103 6.80625C9.80905 6.82875 10.0278 6.95 10.1016 7.1175C10.4741 7.96333 10.8357 8.81333 11.1866 9.6675C11.2641 9.8575 11.2178 10.1012 11.0703 10.3387C10.9953 10.46 10.8778 10.63 10.7416 10.8037C10.6003 10.985 10.2966 11.3175 10.2966 11.3175C10.2966 11.3175 10.1728 11.465 10.2203 11.6488C10.2378 11.7188 10.2953 11.82 10.3478 11.905L10.4216 12.0238C10.7416 12.5575 11.1716 13.0988 11.6966 13.6088C11.8466 13.7537 11.9928 13.9025 12.1503 14.0413C12.7353 14.5575 13.3978 14.9788 14.1128 15.2913L14.1191 15.2937C14.2253 15.34 14.2791 15.365 14.4341 15.4313C14.5116 15.4637 14.5911 15.4913 14.6728 15.5138C14.7028 15.5221 14.7332 15.5267 14.7641 15.5275C14.8353 15.5302 14.9062 15.5155 14.9705 15.4845C15.0347 15.4536 15.0905 15.4074 15.1328 15.35C16.0366 14.255 16.1203 14.1838 16.1266 14.1838V14.1862C16.1893 14.1275 16.264 14.0829 16.3455 14.0555C16.4271 14.0281 16.5135 14.0186 16.5991 14.0275C16.6757 14.0308 16.7495 14.0475 16.8203 14.0775C17.4841 14.3813 18.5703 14.855 18.5703 14.855L19.2978 15.1813C19.4203 15.24 19.5316 15.3787 19.5353 15.5125C19.5403 15.5962 19.5478 15.7312 19.5191 15.9788C19.4791 16.3025 19.3816 16.6912 19.2841 16.895C19.2165 17.0336 19.1279 17.1609 19.0216 17.2725C18.8953 17.4048 18.7572 17.5253 18.6091 17.6325C18.5057 17.7092 18.4536 17.7467 18.4528 17.745C18.2973 17.8437 18.1376 17.9354 17.9741 18.02C17.6521 18.1906 17.2967 18.2887 16.9328 18.3075C16.7016 18.32 16.4703 18.3375 16.2378 18.325C16.2278 18.325 15.5278 18.2162 15.5278 18.2162C13.7507 17.7487 12.1071 16.873 10.7278 15.6588C10.4453 15.41 10.1828 15.1425 9.9153 14.8763C8.8053 13.77 7.96405 12.5763 7.4528 11.4488C7.19343 10.8953 7.05291 10.2936 7.0403 9.6825C7.0356 8.92343 7.28412 8.18447 7.74655 7.5825C7.8378 7.465 7.92405 7.3425 8.0728 7.20125C8.2303 7.05125 8.33155 6.97125 8.4403 6.91625C8.58535 6.845 8.74284 6.80255 8.90405 6.79125Z" fill="#B4B4B4"/>
</svg>
